<svg width="3473" height="889" viewBox="0 0 3473 889" fill="none" xmlns="http://www.w3.org/2000/svg">
<rect width="3473" height="889" fill="white"/>
<g clip-path="url(#clip0_31_2)">
<path d="M1275 40V848.975H60V40H1275Z" fill="#FEFEFE"/>
<path d="M859.717 652.261L918.252 648.311L923.789 653.841L941.982 711.512L947.52 709.142L961.758 710.722L972.041 718.622L975.996 724.942L976.787 744.693L970.459 752.593L964.922 754.963L951.475 754.173L938.818 743.903L912.715 665.691L908.76 664.901L870.791 668.061L885.029 717.832L899.268 716.252L906.387 719.412L913.506 725.732L918.252 736.003L917.461 749.433L910.342 758.123L896.104 759.703L888.193 755.753L878.701 742.323L855.762 663.321V656.211L859.717 652.261Z" fill="#755B56"/>
<path d="M770.332 647.521L785.361 650.681V673.591L782.197 692.552L775.869 710.722L766.377 726.522L755.303 738.373L739.482 749.433L719.707 757.333L702.305 760.493L676.201 759.703L661.963 755.753L646.143 747.853L630.322 733.633L621.621 720.992L613.711 702.822L608.965 679.122L608.174 657.791L621.621 656.211L639.023 648.311L659.59 632.511L676.201 613.55L688.857 618.29H707.842L724.453 611.18L758.467 641.201L770.332 647.521Z" fill="#FEDCB8"/>
<path d="M837.568 608.02L823.33 610.39L817.793 583.53L808.301 567.729L816.211 544.819L839.941 533.759H847.852L941.982 547.189L977.578 557.459L994.189 565.359L1010.8 579.58L1015.55 591.43L1014.76 600.12L1006.85 609.6L975.996 617.5H947.52L867.627 608.81L837.568 608.02Z" fill="#FE7A48"/>
<path d="M817.793 514.009V533.759L816.211 544.819L808.301 567.729L817.793 583.53L823.33 610.39L821.748 625.401L818.584 635.671L808.301 646.731L798.018 650.681H785.361L770.332 647.521L758.467 641.201L724.453 611.18L707.842 618.29H688.857L676.201 613.55L659.59 632.511L639.023 648.311L621.621 656.211L608.174 657.791L597.891 656.211L588.398 650.681L582.07 643.571L576.533 630.141L575.742 603.28L581.279 584.32L586.025 576.42L584.443 573.26L579.697 562.989L573.369 541.659L574.16 516.379L583.652 499.788L600.264 493.468L616.084 495.048L634.277 502.948L651.68 514.799L670.664 532.179L680.947 525.069L697.559 521.909L710.215 522.699L724.453 529.019L735.527 513.218L753.721 496.628L773.496 487.148L791.689 486.358L805.928 492.678L813.047 501.368L817.793 514.009Z" fill="#25ACB5"/>
<path d="M688.066 535.339L707.842 534.549L720.498 542.449L726.035 556.669L727.617 581.95L722.08 598.54L709.424 605.65L685.693 604.86L676.992 597.75L670.664 575.63L671.455 556.669L675.41 544.029L688.066 535.339Z" fill="#3BDBE0"/>
<path d="M593.936 507.688H616.084L638.232 519.539L661.172 540.079L659.59 551.929L640.605 550.349L639.023 551.929V559.829L654.844 570.1V578.79L635.859 593.8V602.49L644.561 604.07L653.262 596.17H662.754L664.336 610.39L642.188 631.721L620.83 643.571H600.264L590.771 634.091L588.398 626.981V601.7L597.891 578.79V571.68L586.816 547.979L585.234 521.119L587.607 514.009L593.936 507.688Z" fill="#3BDBE0"/>
<path d="M771.914 500.578L789.316 498.208L801.182 504.528L806.719 521.119L805.137 540.869L797.227 562.199V572.47L805.137 584.32L809.883 597.75V626.191L803.555 634.881L798.809 637.251H778.242L771.914 634.881L755.303 624.611L737.109 606.44L737.9 596.96L757.676 596.17L759.258 587.48L743.438 576.42V567.729L752.93 559.829V549.559L737.109 548.769L733.945 544.819L734.736 532.969L752.93 512.428L771.914 500.578Z" fill="#3BDBE0"/>
<path d="M564.668 570.89L584.443 573.26L586.025 576.42L581.279 584.32L575.742 603.28L576.533 630.141L582.07 643.571L588.398 650.681L597.891 656.211L608.174 657.791L608.965 679.122L613.711 702.822L621.621 720.992L630.322 733.633L646.143 747.853L661.963 755.753L676.201 759.703L702.305 760.493L719.707 757.333L739.482 749.433L755.303 738.373L766.377 726.522L775.869 710.722L782.197 692.552L785.361 673.591V650.681H798.018L808.301 646.731L818.584 635.671L821.748 625.401L822.5 616L824.121 626.981L825.703 670.431L818.584 714.672L806.719 741.533L786.943 764.443L752.139 784.984L717.334 796.044L670.664 802.364L616.875 800.784L594.727 796.044L572.578 786.564L556.758 774.713L543.311 757.333L536.191 739.953L531.445 716.252L530.654 688.602L534.609 654.631L531.445 651.471L503.76 645.941L477.656 636.461L445.225 618.29L412.793 589.85L388.271 556.669L382.734 545.609L393.809 517.959L400.137 501.368L412.002 480.828L420.703 496.628L440.478 521.119L460.254 539.289L481.611 553.509L496.641 560.619L518.789 566.94L550.43 566.15L564.668 570.89Z" fill="#FE7A48"/>
<path d="M429.404 427.897L430.986 429.477L427.031 434.217L429.404 427.897Z" fill="#FEDCB8"/>
<path d="M907.178 442.117L933.281 431.057L916.67 459.498L887.402 490.308L851.807 516.379L817.793 533.759V514.009L813.047 501.368L805.928 492.678L791.689 486.358L773.496 487.148L753.721 496.628L735.527 513.219L724.453 529.019L710.215 522.699L697.559 521.909L680.947 525.069L670.664 532.179L651.68 514.799L634.277 502.948L616.084 495.048L600.264 493.468L583.652 499.788L574.16 516.379L573.369 541.659L579.697 562.989L562.295 560.619L539.355 553.509L502.969 535.339L477.656 516.379L460.254 498.208L450.762 483.988L476.074 489.518L510.088 488.728L537.773 483.198L570.205 470.558L587.607 459.498L599.473 448.437L613.711 428.687L634.277 389.186L644.561 377.336L662.754 365.486L661.963 373.386L664.336 378.126L670.664 384.446L680.156 388.396L682.529 397.876V404.197L669.873 413.677L665.127 423.157L662.754 450.807L665.127 461.868L677.783 481.618L687.275 486.358H699.932L712.588 476.878L719.707 457.918V441.327L715.752 425.527L703.096 408.147L692.813 403.407L690.439 395.506V386.026L696.768 382.866L703.887 372.596L704.678 365.486L702.305 360.746L715.752 363.906L729.99 372.596L760.84 408.937L780.615 427.107L799.6 438.957L819.375 446.857L845.479 451.597L869.209 450.807L907.178 442.117Z" fill="#FEDCB8"/>
<path d="M443.642 401.827L430.986 429.477L429.404 427.897L451.552 362.326L454.717 359.166L443.642 401.827Z" fill="#FEFEFE"/>
<path d="M676.992 359.166L702.305 360.746L704.678 365.486L703.887 372.596L696.768 382.866L690.439 386.026V395.506L692.812 403.407L703.096 408.147L715.752 425.527L719.707 441.327V457.918L712.588 476.878L699.932 486.358H687.275L677.783 481.618L665.127 461.868L662.754 450.807L665.127 423.157L669.873 413.677L682.529 404.197V397.877L680.156 388.396L670.664 384.446L664.336 378.126L661.963 373.386L662.754 365.486L676.992 359.166Z" fill="#684D4B"/>
<path d="M704.5 440.5L695.5 434.5H685L677 439L674.5 454.5L672.5 440.5L673.5 425L680.5 415L691.5 412L701.5 415L708.5 425L710.5 439L708.5 452L704.5 440.5Z" fill="#533F35"/>
<path d="M684.902 434.217H695.185L704.677 440.537L708.633 450.807L707.051 464.238L699.931 473.718L691.23 475.298L683.32 471.348L674.619 454.757L676.992 438.957L684.902 434.217Z" fill="#FE7A48"/>
<path d="M965.713 346.526H972.041L1002.1 363.116L1006.06 367.856L998.145 414.467L1010.8 418.417L1018.71 426.317L1022.67 436.587V448.437L1017.92 458.708L1008.43 465.028L992.607 462.658L982.324 450.017L979.951 435.007L990.234 374.176L975.205 367.066L965.713 359.166L963.34 348.896L965.713 346.526Z" fill="#755B56"/>
<path d="M449.18 479.248L450.762 483.988L460.254 498.208L477.656 516.379L502.969 535.339L539.355 553.509L562.295 560.619L579.697 562.99L584.443 573.26L564.668 570.89L550.43 566.15L518.789 566.94L496.641 560.619L481.611 553.509L460.254 539.289L440.479 521.119L420.703 496.628L412.002 480.828L400.137 501.368L393.809 517.959L344.766 519.539L345.557 516.379L342.393 515.589L331.318 502.948L324.99 487.938L323.408 463.448L328.154 446.067L336.855 431.847L355.049 417.627L373.242 414.467L390.645 419.997L400.928 427.897L411.211 444.487H423.076L427.031 434.217L430.986 429.477L443.643 401.827L454.5 359L456.299 350L459 342.5L465 347.316L465.791 353.636L456.299 393.136L440.479 432.637L430.195 443.697L441.27 454.758L461.836 465.028L462.627 472.138L449.18 479.248Z" fill="#95493E"/>
<path d="M415.957 469.768L423.076 450.017L433.359 460.288L449.18 468.978L440.479 473.718L438.896 482.408L446.807 496.628L460.254 513.219L489.521 538.499L522.744 557.459L506.133 554.299L482.402 543.239L464.209 530.599L444.434 511.639L415.957 469.768Z" fill="#FEFEFE"/>
<path d="M363.75 424.737L374.824 423.947L385.898 427.897L396.182 437.377L403.301 454.758L404.092 467.398L401.719 478.458L395.391 491.098L385.107 502.158L363.75 511.639L348.721 508.478L336.855 493.468L332.9 477.668V464.238L340.02 443.697L351.094 431.057L363.75 424.737Z" fill="#FE7A48"/>
<path d="M474.492 239.084L481.612 242.244L479.239 248.564H471.328L468.955 240.664L474.492 239.084Z" fill="#684D4B"/>
<path d="M1026.62 291.225L1007.64 229.603H1021.88L1031.37 260.414L1040.86 257.254L1050.35 258.834L1062.22 268.314L1066.96 277.794L1067.75 289.645L1063.8 298.335L1058.26 303.075L1045.61 304.655L1033.74 299.125L1026.62 291.225Z" fill="#684D4B"/>
<path d="M1013.96 200.373L1021.88 229.603H1007.64L1001.31 212.223L960.176 216.963L974.414 271.474L978.369 269.894L991.816 271.474L1002.1 280.164L1006.05 288.064L1005.26 306.235L1000.52 311.765L988.652 314.925L976.787 310.185L967.295 297.545L944.355 205.903L952.266 200.373L1009.22 195.633L1013.96 200.373Z" fill="#684D4B"/>
<path d="M475.283 312.555L472.5 307.5L486.5 258.044L486 251.5L480.5 245.5L474.492 239.084L468.955 240.664L462.627 244.614L456.299 258.044L449.18 231.183L445.225 200.373V174.302L448.389 166.402L453.926 162.452L468.164 166.402L495.059 184.573L527.49 212.223L545.684 231.183L504.551 269.104L489.522 290.435L480.03 310.975L475.283 312.555Z" fill="#FEDCB8"/>
<path d="M410.42 137.172L419.121 137.962L416.748 182.993L419.912 216.963L429.405 264.364L443 298.5L437 307.5L419.912 265.154L410.42 217.753L408.047 191.683V150.602L410.42 137.172Z" fill="#95493E"/>
<path d="M436.524 113.471L435.733 122.161L425.449 123.742L420.703 130.062L419.121 137.962L410.42 137.172L412.002 126.112L416.748 118.211L426.24 113.471H436.524Z" fill="#8F3B2F"/>
<path d="M779.824 130.062L796.436 117.421L804.346 122.161L786.943 136.382L748.975 176.672L740.273 189.313L746.602 194.053V198.003L743.438 201.163L720.498 198.793L664.336 200.373L628.74 206.693L586.025 220.913H579.697L577.324 214.593L580.488 210.643L553.594 185.363L523.535 163.242L480.82 138.752L435.732 122.161L436.523 113.471L471.328 124.532L521.162 150.602L562.295 180.623L589.98 209.063L624.785 198.003L664.336 190.893L680.947 189.313L728.408 190.893L756.885 152.972L779.824 130.062Z" fill="#95493E"/>
<path d="M385.898 571.68L378.779 558.249L381 541L388.271 556.669L412.793 589.85L445.225 618.29L477.656 636.461L503.76 645.941L531.445 651.471L534.609 654.631L530.654 688.602L531.445 716.252L536.191 739.953L543.311 757.333L556.758 774.713L572.578 786.563L594.727 796.044L616.875 800.784L670.664 802.364L717.334 796.044L752.139 784.983L786.943 764.443L806.719 741.533L818.584 714.672L825.703 670.431L824.121 626.981L822.5 616L823.33 610.39L837.568 608.02L867.627 608.81L947.52 617.5H975.996L1006.85 609.6L1014.76 600.12L1015.55 591.43L1010.8 579.58L994.189 565.359L977.578 557.459L941.982 547.189L847.852 533.759H839.941L816.211 544.819L817.793 533.759L851.807 516.379L887.402 490.308L916.67 459.498L933.281 431.057V428.687L919.043 424.737L916.67 419.207L931.699 404.197L938.027 393.136L924.58 379.706L911.133 360.746L880.283 301.495L881.074 296.755L887.402 290.435L893.73 269.104L900.85 216.963L899.268 158.502L888.193 106.361H896.895L907.178 147.442L910.342 213.013L903.223 269.894L891.357 304.655L922.207 360.746L933.281 375.756L947.52 389.186L945.938 399.457L930.908 417.627L939.609 420.787L943.564 424.737L944.355 430.267L936.445 447.647L911.133 480.828L887.402 502.948L854.971 525.859L891.357 529.019L942.773 537.709L979.16 547.979L996.562 555.879L1017.13 572.47L1024.25 586.69L1023.46 604.07L1014.76 615.13L997.354 623.031L976.787 626.981H949.102L862.881 618.29H832.822L835.195 645.941L834.404 681.492L830.449 707.562L821.748 733.633L809.092 754.963L795.645 769.183L775.869 783.403L745.811 797.624L715.752 806.314L684.111 811.054H624.785L600.264 807.104L580.488 800.784L558.34 788.143L544.893 776.293L526.699 791.304L506.924 800.784L474.492 810.264L436.523 812.634L409.629 806.314L389.062 796.044L373.242 782.613L361.377 766.813L348.721 737.583L340.02 698.082L337.646 646.731L340.811 622.241L350.303 619.87L370.869 626.981L426.24 654.631L467.373 685.442L526.699 745.483L528.281 743.903L521.953 714.672V679.122L525.908 660.161L482.402 648.311L441.27 626.981L403.301 593.8L385.898 571.68Z" fill="#95493E"/>
<path d="M371.66 765.233L362.168 743.903L368.496 737.583L375.615 722.572H392.226L399.345 718.622L404.092 705.982L404.883 692.552L409.629 690.182H422.285L428.613 687.022L433.359 679.122V672.012L468.164 698.872L514.043 747.063L533.818 759.703L540.146 769.183L522.744 782.614L491.103 796.044L457.881 803.154L429.404 802.364L409.629 796.834L388.271 784.194L371.66 765.233Z" fill="#FE7A48"/>
<path d="M388.271 645.151L433.359 672.011V679.121L428.613 687.022L422.285 690.182H409.629L404.883 692.552L404.092 705.982L399.345 718.622L392.226 722.572H375.615L368.496 737.583L362.168 743.903L355.84 727.312L348.72 690.972L347.138 672.801L348.72 630.931L388.271 645.151Z" fill="#FEDCB8"/>
<path d="M880.283 90.5609L888.193 106.361L899.268 158.502L900.85 216.963L893.73 269.104L887.402 290.435L881.074 296.755L880.283 301.495L911.133 360.746L924.58 379.706L938.027 393.136L931.699 404.197L916.67 419.207L919.043 424.737L933.281 428.687V431.057L907.178 442.117L869.209 450.807L845.479 451.597L819.375 446.857L799.6 438.957L780.615 427.107L760.84 408.937L729.99 372.596L715.752 363.906L702.305 360.746L676.992 359.166L662.754 365.486L644.561 377.336L634.277 389.186L613.711 428.687L599.473 448.437L587.607 459.498L570.205 470.558L537.773 483.198L510.088 488.728L476.074 489.518L450.762 483.988L449.18 479.248L462.627 472.138L461.836 465.028L441.27 454.758L430.195 443.697L440.479 432.637L456.299 393.136L465.791 353.636L465 347.316L459 342.5L472 307L475.283 312.555L480.029 310.975L489.521 290.435L504.551 269.104L545.684 231.183L527.49 212.223L495.059 184.573L468.164 166.402L453.926 162.452L448.389 166.402L445.225 174.302V200.373L449.18 231.183L456.299 258.044L442.061 294.385V298.5L438.896 292.015L429.404 264.364L419.912 216.963L416.748 182.993L419.121 137.962L420.703 130.062L425.449 123.742L435.732 122.161L480.82 138.752L523.535 163.242L553.594 185.363L580.488 210.643L577.324 214.593L579.697 220.913H586.025L628.74 206.693L664.336 200.373L720.498 198.793L743.438 201.163L746.602 198.003V194.053L740.273 189.313L748.975 176.672L786.943 136.382L804.346 122.161L847.852 92.931L868.418 85.0308L873.955 85.8208L880.283 90.5609Z" fill="#FE7A48"/>
<path d="M513.252 429.477L538.564 425.527L554.385 430.267L561.504 438.167L559.131 448.437L550.43 453.968L534.609 457.918L514.043 457.128L500.596 449.227L499.805 441.327L505.342 434.217L513.252 429.477Z" fill="#F9ADA4"/>
<path d="M841.523 392.346L858.926 390.766L873.164 393.926L880.283 400.247L878.701 411.307L870 418.417L852.598 423.947H833.613L823.33 420.787L817.002 413.677L817.793 406.567L827.285 397.876L841.523 392.346Z" fill="#F9ADA4"/>
<path d="M594.727 364.696L601.846 363.906L605.01 367.856V372.596L600.264 382.076L587.607 393.136L574.951 397.877L558.34 398.667L548.057 396.296L537.773 390.766L529.863 382.866L527.49 375.756L530.654 371.016H536.191L552.803 383.656L567.832 385.236L582.07 380.496L589.98 373.386L594.727 364.696Z" fill="#684D4B"/>
<path d="M824.912 339.415L832.031 338.625L835.195 348.106L830.449 356.796L820.166 366.276L800.391 373.386H786.943L771.914 367.856L760.84 357.586L757.676 350.476L760.049 344.156L766.377 343.366L774.287 352.846L783.779 358.376L802.764 359.166L814.629 353.636L824.912 339.415Z" fill="#684D4B"/>
<path d="M571.787 314.925L582.07 314.135L587.607 317.295L588.398 325.195L582.07 330.725L566.25 332.305L561.504 329.145L560.713 323.615L571.787 314.925Z" fill="#FEDCB8"/>
<path d="M768.75 293.595L782.988 292.015L790.898 296.755L791.689 301.495L788.525 306.235L770.332 308.605L763.213 302.285L764.004 297.545L768.75 293.595Z" fill="#FEDCB8"/>
<path d="M851.016 127.692L858.926 126.902L867.627 136.382L873.164 171.932L871.582 230.393L862.881 267.524L822.539 230.393L780.615 204.323L804.346 168.772L828.076 145.072L851.016 127.692Z" fill="#FEDCB8"/>
<path d="M847.061 84.2408L847.852 92.9309L804.346 122.161L796.436 117.421L825.703 95.301L847.061 84.2408Z" fill="#8F3B2F"/>
<path d="M868.418 76.3406V85.0308L847.852 92.9309L847.061 84.2408L856.553 78.7107L868.418 76.3406Z" fill="#95493E"/>
<path d="M894.521 97.671L896.895 106.361H888.193L880.283 90.5609L873.955 85.8208L868.418 85.0308V76.3406L877.119 77.1307L885.82 83.4508L894.521 97.671Z" fill="#8F3B2F"/>
<path d="M382.164 520.254L381.487 520.857L380.58 520.886L346.431 521.985L334.609 549.286V560.068L338.82 569.18L348.663 575.5H359.739L372.057 566.094L376.425 557.368L378.077 550.883L378.112 550.745L378.162 550.613L380.397 544.723L380.405 544.701L380.414 544.68L391.467 517.084L394.241 509.485L382.164 520.254Z" fill="#755B56" stroke="#6E4E49" stroke-width="5"/>
<path d="M469.473 242.962L464.055 246.345L458.077 259.029L443.867 295.297L443.849 295.342L443.829 295.387L442.247 299.002L442.171 299.177L442.069 299.337L440.662 301.562L438.862 307.254L438.853 307.283L438.843 307.313L437.575 310.998L437.551 311.067L437.523 311.135L393.162 419.178L401.93 425.914L402.291 426.192L402.531 426.58L412.814 443.17L413.069 443.581L413.152 444.057L416.319 462.167L422.127 445.715L425.586 434.276L425.622 434.155L425.671 434.038L428.138 428.119L450.11 363.198L450.116 363.181L450.123 363.163L451.84 358.329L457.373 342.539L457.383 342.51L470.029 307.777L486.467 257.745L485.802 249.77L479.711 244.361L473.798 241.664L469.473 242.962Z" fill="#755B56" stroke="#6E4E49" stroke-width="5"/>
<path d="M387 521L394 506L381 518L350 519.5L347.5 525L381 526L387 521Z" fill="#755B56"/>
<path d="M417.5 451.5L414 462L411 445L400.5 428L394 423L397.5 415L411 425.5L421 439L417.5 451.5Z" fill="#755B56"/>
</g>
<path d="M1229.71 610.3C1216.25 610.3 1202.65 609.233 1188.91 607.1C1175.18 604.967 1162.38 601.9 1150.51 597.9V553.9C1158.78 556.7 1167.45 559.033 1176.51 560.9C1185.71 562.767 1194.85 564.233 1203.91 565.3C1212.98 566.233 1221.58 566.7 1229.71 566.7C1251.18 566.7 1266.65 563.1 1276.11 555.9C1285.58 548.7 1290.31 538.5 1290.31 525.3C1290.31 513.967 1286.78 505.233 1279.71 499.1C1272.78 492.833 1260.11 487.367 1241.71 482.7L1221.71 477.5C1196.11 470.967 1176.78 460.967 1163.71 447.5C1150.78 433.9 1144.31 416.033 1144.31 393.9C1144.31 366.7 1154.05 345.367 1173.51 329.9C1192.98 314.433 1222.18 306.7 1261.11 306.7C1273.78 306.7 1285.98 307.5 1297.71 309.1C1309.58 310.567 1320.18 312.7 1329.51 315.5V359.5C1319.78 356.433 1309.25 354.167 1297.91 352.7C1286.58 351.1 1275.25 350.3 1263.91 350.3C1247.78 350.3 1234.85 351.967 1225.11 355.3C1215.51 358.633 1208.51 363.367 1204.11 369.5C1199.85 375.5 1197.71 382.7 1197.71 391.1C1197.71 401.767 1200.85 410.167 1207.11 416.3C1213.51 422.3 1224.98 427.5 1241.51 431.9L1261.51 437.1C1280.31 441.767 1295.78 447.9 1307.91 455.5C1320.18 462.967 1329.25 472.167 1335.11 483.1C1340.98 493.9 1343.91 506.767 1343.91 521.7C1343.91 540.233 1339.38 556.1 1330.31 569.3C1321.25 582.5 1308.18 592.633 1291.11 599.7C1274.18 606.767 1253.71 610.3 1229.71 610.3ZM1417.16 694.5L1449.16 606.5L1466.96 565.7L1527.56 388.3H1579.56L1468.96 694.5H1417.16ZM1434.56 606.5L1355.96 388.3H1410.96L1483.76 606.5H1434.56ZM1606.74 606.5V388.3H1650.34L1653.94 411.5H1656.54C1664.54 402.7 1673.74 396.1 1684.14 391.7C1694.68 387.167 1706.14 384.9 1718.54 384.9C1731.21 384.9 1742.54 387.567 1752.54 392.9C1762.54 398.233 1770.41 406.9 1776.14 418.9C1781.88 430.767 1784.74 446.5 1784.74 466.1V606.5H1733.34V470.5C1733.34 455.433 1730.41 445.033 1724.54 439.3C1718.81 433.433 1711.14 430.5 1701.54 430.5C1696.61 430.5 1691.54 431.3 1686.34 432.9C1681.14 434.367 1676.21 436.767 1671.54 440.1C1666.88 443.433 1662.81 447.7 1659.34 452.9V606.5H1606.74ZM1857.34 606.5V470.5C1857.34 455.433 1854.28 445.033 1848.14 439.3C1842.01 433.433 1834.08 430.5 1824.34 430.5C1819.28 430.5 1814.01 431.3 1808.54 432.9C1803.08 434.5 1797.88 437.167 1792.94 440.9C1788.01 444.5 1783.74 449.367 1780.14 455.5L1768.94 419.7C1779.08 407.033 1790.34 398.1 1802.74 392.9C1815.28 387.567 1827.61 384.9 1839.74 384.9C1853.21 384.9 1865.21 387.633 1875.74 393.1C1886.28 398.433 1894.54 407.167 1900.54 419.3C1906.68 431.433 1909.74 447.567 1909.74 467.7V606.5H1857.34ZM1959.87 694.5V388.3H2004.27L2007.47 411.9H2010.07C2016.47 403.767 2024.6 397.233 2034.47 392.3C2044.47 387.367 2055.93 384.9 2068.87 384.9C2084.87 384.9 2099.53 388.5 2112.87 395.7C2126.33 402.9 2137.07 414.433 2145.07 430.3C2153.07 446.167 2157.07 467.167 2157.07 493.3C2157.07 518.9 2152.67 540.433 2143.87 557.9C2135.2 575.233 2122.27 588.367 2105.07 597.3C2087.87 606.1 2066.6 610.5 2041.27 610.5C2036.33 610.5 2031.33 610.3 2026.27 609.9C2021.33 609.5 2016.73 609.033 2012.47 608.5V694.5H1959.87ZM2041.47 569.9C2062.27 569.9 2077.87 564.3 2088.27 553.1C2098.8 541.9 2104.07 523.367 2104.07 497.5C2104.07 479.5 2101.93 465.5 2097.67 455.5C2093.4 445.5 2087.53 438.5 2080.07 434.5C2072.6 430.367 2064 428.3 2054.27 428.3C2046.53 428.3 2038.93 429.833 2031.47 432.9C2024 435.833 2017.67 440.633 2012.47 447.3V566.9C2016.47 567.7 2021.07 568.433 2026.27 569.1C2031.47 569.633 2036.53 569.9 2041.47 569.9ZM2197.37 606.5V283.3H2249.97V411.1H2252.57C2260.57 402.567 2269.83 396.1 2280.37 391.7C2291.03 387.167 2302.7 384.9 2315.37 384.9C2328.57 384.9 2340.5 387.633 2351.17 393.1C2361.83 398.433 2370.23 407.167 2376.37 419.3C2382.63 431.433 2385.77 447.5 2385.77 467.5V606.5H2333.17V470.9C2333.17 455.7 2329.9 445.233 2323.37 439.5C2316.83 433.633 2308.1 430.7 2297.17 430.7C2291.7 430.7 2286.1 431.433 2280.37 432.9C2274.63 434.367 2269.1 436.767 2263.77 440.1C2258.57 443.3 2253.97 447.367 2249.97 452.3V606.5H2197.37ZM2526.85 610.5C2506.18 610.5 2488.25 606.433 2473.05 598.3C2457.85 590.167 2446.05 577.833 2437.65 561.3C2429.38 544.633 2425.25 523.5 2425.25 497.9C2425.25 472.167 2429.32 450.967 2437.45 434.3C2445.58 417.633 2457.25 405.233 2472.45 397.1C2487.65 388.967 2505.78 384.9 2526.85 384.9C2547.92 384.9 2566.05 388.967 2581.25 397.1C2596.45 405.233 2608.05 417.633 2616.05 434.3C2624.18 450.967 2628.25 472.1 2628.25 497.7C2628.25 523.167 2624.12 544.3 2615.85 561.1C2607.58 577.767 2595.85 590.167 2580.65 598.3C2565.45 606.433 2547.52 610.5 2526.85 610.5ZM2526.85 570.1C2536.98 570.1 2545.65 567.9 2552.85 563.5C2560.05 559.1 2565.58 551.7 2569.45 541.3C2573.32 530.767 2575.25 516.367 2575.25 498.1C2575.25 479.567 2573.32 465.033 2569.45 454.5C2565.58 443.833 2559.98 436.3 2552.65 431.9C2545.45 427.5 2536.85 425.3 2526.85 425.3C2516.72 425.3 2507.98 427.5 2500.65 431.9C2493.45 436.3 2487.92 443.767 2484.05 454.3C2480.18 464.7 2478.25 479.033 2478.25 497.3C2478.25 515.833 2480.18 530.433 2484.05 541.1C2487.92 551.633 2493.45 559.1 2500.65 563.5C2507.98 567.9 2516.72 570.1 2526.85 570.1ZM2670.02 606.5V388.3H2713.62L2717.22 411.3H2719.82C2728.22 402.767 2738.02 396.233 2749.22 391.7C2760.42 387.167 2772.49 384.9 2785.42 384.9C2799.56 384.9 2812.09 387.633 2823.02 393.1C2834.09 398.567 2842.76 407.367 2849.02 419.5C2855.29 431.5 2858.42 447.567 2858.42 467.7V606.5H2805.82V470.7C2805.82 455.633 2802.62 445.167 2796.22 439.3C2789.82 433.433 2781.02 430.5 2769.82 430.5C2764.49 430.5 2758.96 431.233 2753.22 432.7C2747.49 434.167 2741.96 436.5 2736.62 439.7C2731.29 442.9 2726.62 447.1 2722.62 452.3V606.5H2670.02ZM2944.5 694.5L2976.5 606.5L2994.3 565.7L3054.9 388.3H3106.9L2996.3 694.5H2944.5ZM2961.9 606.5L2883.3 388.3H2938.3L3011.1 606.5H2961.9Z" fill="#272524"/>
<defs>
<clipPath id="clip0_31_2">
<rect width="1215" height="809" fill="white" transform="matrix(-1 0 0 1 1275 40)"/>
</clipPath>
</defs>
</svg>
