<svg width="1326" height="320" viewBox="0 0 1326 320" fill="none" xmlns="http://www.w3.org/2000/svg">
<rect width="1326" height="320" fill="white"/>
<path d="M396.484 213.216C392.174 213.216 387.822 212.875 383.428 212.192C379.033 211.509 374.937 210.528 371.14 209.248V195.168C373.785 196.064 376.558 196.811 379.46 197.408C382.404 198.005 385.326 198.475 388.228 198.816C391.129 199.115 393.881 199.264 396.484 199.264C403.353 199.264 408.302 198.112 411.332 195.808C414.361 193.504 415.876 190.24 415.876 186.016C415.876 182.389 414.745 179.595 412.484 177.632C410.265 175.627 406.212 173.877 400.324 172.384L393.924 170.72C385.732 168.629 379.545 165.429 375.364 161.12C371.225 156.768 369.156 151.051 369.156 143.968C369.156 135.264 372.27 128.437 378.5 123.488C384.729 118.539 394.073 116.064 406.532 116.064C410.585 116.064 414.489 116.32 418.244 116.832C422.041 117.301 425.433 117.984 428.42 118.88V132.96C425.305 131.979 421.934 131.253 418.308 130.784C414.681 130.272 411.054 130.016 407.428 130.016C402.265 130.016 398.126 130.549 395.012 131.616C391.94 132.683 389.7 134.197 388.292 136.16C386.926 138.08 386.244 140.384 386.244 143.072C386.244 146.485 387.246 149.173 389.252 151.136C391.3 153.056 394.969 154.72 400.26 156.128L406.66 157.792C412.676 159.285 417.625 161.248 421.508 163.68C425.433 166.069 428.334 169.013 430.212 172.512C432.089 175.968 433.028 180.085 433.028 184.864C433.028 190.795 431.577 195.872 428.676 200.096C425.774 204.32 421.593 207.563 416.132 209.824C410.713 212.085 404.164 213.216 396.484 213.216ZM456.467 240.16L466.707 212L472.403 198.944L491.795 142.176H508.435L473.043 240.16H456.467ZM462.035 212L436.883 142.176H454.483L477.779 212H462.035ZM517.133 212V142.176H531.085L532.237 149.536H533.069C535.757 146.805 538.893 144.715 542.477 143.264C546.061 141.813 549.922 141.088 554.061 141.088C558.583 141.088 562.594 141.963 566.093 143.712C569.634 145.461 572.407 148.277 574.413 152.16C576.418 156 577.421 161.141 577.421 167.584V212H560.589V168.544C560.589 163.723 559.565 160.373 557.517 158.496C555.469 156.619 552.653 155.68 549.069 155.68C547.362 155.68 545.591 155.915 543.757 156.384C541.922 156.853 540.151 157.6 538.445 158.624C536.738 159.648 535.245 160.992 533.965 162.656V212H517.133ZM593.383 240.16V142.176H607.591L608.615 149.728H609.447C611.495 147.125 614.097 145.035 617.255 143.456C620.455 141.877 624.124 141.088 628.263 141.088C633.383 141.088 638.076 142.24 642.343 144.544C646.652 146.848 650.087 150.539 652.646 155.616C655.207 160.693 656.487 167.413 656.487 175.776C656.487 183.968 655.079 190.859 652.263 196.448C649.489 201.995 645.351 206.197 639.847 209.056C634.343 211.872 627.537 213.28 619.431 213.28C617.852 213.28 616.252 213.216 614.631 213.088C613.052 212.96 611.58 212.811 610.215 212.64V240.16H593.383ZM619.495 200.288C626.151 200.288 631.143 198.496 634.471 194.912C637.841 191.328 639.527 185.397 639.527 177.12C639.527 171.36 638.844 166.88 637.479 163.68C636.113 160.48 634.236 158.24 631.847 156.96C629.457 155.637 626.705 154.976 623.591 154.976C621.116 154.976 618.684 155.467 616.295 156.448C613.905 157.387 611.879 158.923 610.215 161.056V199.328C611.495 199.584 612.967 199.819 614.631 200.032C616.295 200.203 617.916 200.288 619.495 200.288ZM669.383 212V108.576H686.215V149.472H687.047C689.607 146.741 692.572 144.672 695.943 143.264C699.356 141.813 703.089 141.088 707.143 141.088C711.367 141.088 715.185 141.963 718.599 143.712C722.012 145.419 724.7 148.213 726.663 152.096C728.668 155.979 729.671 161.12 729.671 167.52V212H712.839V168.608C712.839 163.744 711.793 160.395 709.703 158.56C707.612 156.683 704.817 155.744 701.319 155.744C699.569 155.744 697.777 155.979 695.943 156.448C694.108 156.917 692.337 157.685 690.631 158.752C688.967 159.776 687.495 161.077 686.215 162.656V212H669.383ZM774.817 213.28C768.203 213.28 762.465 211.979 757.601 209.376C752.737 206.773 748.961 202.827 746.273 197.536C743.627 192.203 742.305 185.44 742.305 177.248C742.305 169.013 743.606 162.229 746.209 156.896C748.811 151.563 752.545 147.595 757.409 144.992C762.273 142.389 768.075 141.088 774.817 141.088C781.558 141.088 787.361 142.389 792.225 144.992C797.089 147.595 800.801 151.563 803.361 156.896C805.963 162.229 807.265 168.992 807.265 177.184C807.265 185.333 805.942 192.096 803.297 197.472C800.651 202.805 796.897 206.773 792.033 209.376C787.169 211.979 781.43 213.28 774.817 213.28ZM774.817 200.352C778.059 200.352 780.833 199.648 783.137 198.24C785.441 196.832 787.211 194.464 788.449 191.136C789.686 187.765 790.305 183.157 790.305 177.312C790.305 171.381 789.686 166.731 788.449 163.36C787.211 159.947 785.419 157.536 783.073 156.128C780.769 154.72 778.017 154.016 774.817 154.016C771.574 154.016 768.779 154.72 766.433 156.128C764.129 157.536 762.358 159.925 761.121 163.296C759.883 166.624 759.265 171.211 759.265 177.056C759.265 182.987 759.883 187.659 761.121 191.072C762.358 194.443 764.129 196.832 766.433 198.24C768.779 199.648 771.574 200.352 774.817 200.352ZM820.633 212V142.176H834.585L835.737 149.536H836.569C839.257 146.805 842.393 144.715 845.977 143.264C849.561 141.813 853.422 141.088 857.561 141.088C862.083 141.088 866.094 141.963 869.593 143.712C873.134 145.461 875.907 148.277 877.913 152.16C879.918 156 880.921 161.141 880.921 167.584V212H864.089V168.544C864.089 163.723 863.065 160.373 861.017 158.496C858.969 156.619 856.153 155.68 852.569 155.68C850.862 155.68 849.091 155.915 847.257 156.384C845.422 156.853 843.651 157.6 841.945 158.624C840.238 159.648 838.745 160.992 837.465 162.656V212H820.633ZM908.467 240.16L918.707 212L924.403 198.944L943.795 142.176H960.435L925.043 240.16H908.467ZM914.035 212L888.883 142.176H906.483L929.779 212H914.035Z" fill="#272524"/>
</svg>
